simulation
nRows=38
nColumns=15
endheader
time  TH_x TH_y TH_z SC_y  SC_z  SC_x  AC_y  AC_z  AC_x  GH_y  GH_z  GH_yy  EL_x  PS_y
0.000000  0.000000  0.000000  0.000000  -21.784000  6.303000  1.000000  46.295000  4.899000  -1.180000  0.000000  8.000000  0.000000  5.000000  0.000000
0.000000  0.000000  0.000000  0.000000  -21.784000  6.303000  1.000000  46.295000  4.899000  -1.180000  0.000000  8.000000  -0.000000  5.000000  0.000000
0.000000  0.000000  0.000000  0.000000  -21.784000  6.303000  1.000000  46.295000  4.899000  -1.180000  0.000000  8.000000  -0.000000  5.000000  0.000000
0.000001  0.000000  0.000000  0.000000  -21.784000  6.303000  0.999999  46.295000  4.899000  -1.180000  0.000000  8.000000  -0.000000  5.000000  0.000000
0.000002  0.000000  0.000000  0.000000  -21.784000  6.303000  0.999994  46.294999  4.899005  -1.179996  0.000001  8.000000  -0.000001  5.000000  0.000000
0.000004  0.000000  0.000000  0.000000  -21.784000  6.303000  0.999983  46.294996  4.899012  -1.179988  0.000004  8.000000  -0.000002  5.000000  0.000000
0.000005  0.000000  0.000000  0.000000  -21.784000  6.303000  0.999968  46.294993  4.899023  -1.179978  0.000008  8.000000  -0.000003  5.000000  0.000000
0.000007  0.000000  0.000000  0.000000  -21.784001  6.303000  0.999949  46.294988  4.899038  -1.179964  0.000014  8.000000  -0.000005  5.000000  0.000000
0.000011  0.000000  0.000000  0.000000  -21.784001  6.303000  0.999888  46.294973  4.899083  -1.179921  0.000034  7.999999  -0.000012  4.999999  0.000000
0.000015  0.000000  0.000000  0.000000  -21.784003  6.303000  0.999812  46.294951  4.899139  -1.179868  0.000062  7.999998  -0.000021  4.999999  0.000000
0.000019  0.000000  0.000000  0.000000  -21.784005  6.302999  0.999726  46.294923  4.899203  -1.179807  0.000098  7.999997  -0.000034  4.999998  0.000000
0.000023  0.000000  0.000000  0.000000  -21.784007  6.302999  0.999634  46.294889  4.899271  -1.179742  0.000143  7.999996  -0.000049  4.999997  0.000000
0.000027  0.000000  0.000000  0.000000  -21.784009  6.302999  0.999538  46.294850  4.899344  -1.179673  0.000196  7.999994  -0.000066  4.999996  0.000000
0.000031  0.000000  0.000000  0.000000  -21.784013  6.302998  0.999432  46.294803  4.899424  -1.179597  0.000261  7.999992  -0.000087  4.999995  0.000000
0.000035  0.000000  0.000000  0.000000  -21.784016  6.302998  0.999324  46.294750  4.899506  -1.179519  0.000335  7.999989  -0.000111  4.999993  0.000000
0.000039  0.000000  0.000000  0.000000  -21.784021  6.302997  0.999215  46.294691  4.899590  -1.179441  0.000419  7.999986  -0.000138  4.999991  0.000000
0.000043  0.000000  0.000000  0.000000  -21.784025  6.302996  0.999105  46.294625  4.899675  -1.179361  0.000511  7.999983  -0.000168  4.999989  0.000000
0.000048  0.000000  0.000000  0.000000  -21.784031  6.302995  0.998994  46.294554  4.899760  -1.179280  0.000612  7.999980  -0.000200  4.999987  0.000000
0.000055  0.000000  0.000000  0.000000  -21.784040  6.302994  0.998812  46.294425  4.899903  -1.179146  0.000799  7.999973  -0.000259  4.999983  0.000000
0.000061  0.000000  0.000000  0.000000  -21.784052  6.302992  0.998629  46.294279  4.900047  -1.179011  0.001009  7.999965  -0.000324  4.999979  0.000000
0.000068  0.000000  0.000000  0.000000  -21.784064  6.302991  0.998447  46.294117  4.900192  -1.178875  0.001243  7.999957  -0.000397  4.999974  0.000000
0.000075  0.000000  0.000000  0.000000  -21.784078  6.302989  0.998266  46.293940  4.900338  -1.178738  0.001501  7.999947  -0.000477  4.999968  0.000000
0.000082  0.000000  0.000000  0.000000  -21.784093  6.302986  0.998086  46.293747  4.900485  -1.178601  0.001782  7.999936  -0.000563  4.999962  0.000000
0.000096  0.000000  0.000000  0.000000  -21.784129  6.302981  0.997723  46.293307  4.900786  -1.178321  0.002424  7.999912  -0.000758  4.999949  0.000000
0.000110  0.000000  0.000000  0.000000  -21.784170  6.302976  0.997365  46.292804  4.901090  -1.178039  0.003161  7.999884  -0.000979  4.999933  0.000000
0.000124  0.000000  0.000000  0.000000  -21.784216  6.302969  0.997010  46.292236  4.901397  -1.177755  0.003991  7.999851  -0.001224  4.999916  0.000000
0.000138  0.000000  0.000000  0.000000  -21.784268  6.302961  0.996659  46.291606  4.901708  -1.177468  0.004912  7.999815  -0.001494  4.999897  0.000000
0.000185  0.000000  0.000000  0.000000  -21.784482  6.302930  0.995523  46.289057  4.902762  -1.176497  0.008609  7.999668  -0.002547  4.999823  0.000000
0.000231  0.000000  0.000000  0.000000  -21.784757  6.302889  0.994434  46.285823  4.903849  -1.175498  0.013248  7.999479  -0.003817  4.999734  0.000000
0.000278  0.000000  0.000000  0.000000  -21.785094  6.302839  0.993393  46.281919  4.904966  -1.174467  0.018775  7.999249  -0.005273  4.999633  0.000000
0.000324  0.000000  0.000000  0.000000  -21.785490  6.302778  0.992400  46.277356  4.906113  -1.173403  0.025141  7.998980  -0.006879  4.999524  0.000000
0.000508  0.000000  0.000000  0.000000  -21.787643  6.302435  0.988951  46.253085  4.910909  -1.168815  0.057607  7.997548  -0.014125  4.999053  0.000000
0.000692  0.000000  0.000000  0.000000  -21.790698  6.301917  0.986286  46.219475  4.916051  -1.163524  0.099488  7.995581  -0.021397  4.998646  0.000000
0.000877  0.000000  0.000000  0.000000  -21.794623  6.301212  0.984417  46.177274  4.921456  -1.157404  0.148101  7.993149  -0.027041  4.998451  0.000000
0.001061  0.000000  0.000000  0.000000  -21.799382  6.300308  0.983349  46.127198  4.927044  -1.150354  0.201046  7.990322  -0.029629  4.998598  0.000000
0.001245  0.000000  0.000000  0.000000  -21.804939  6.299196  0.983078  46.069929  4.932738  -1.142288  0.256187  7.987171  -0.027936  4.999201  0.000000
0.001509  0.000000  0.000000  0.000000  -21.814243  6.297214  0.984059  45.976459  4.940957  -1.128798  0.335381  7.982225  -0.015937  5.001062  0.000000
0.001774  0.000000  0.000000  0.000000  -21.825017  6.294761  0.986607  45.871359  4.949053  -1.112922  0.410287  7.976969  0.009567  5.004314  0.000000
